<?xml version="1.0" standalone="no"?>
<!DOCTYPE svg PUBLIC "-//W3C//DTD SVG 20010904//EN"
 "http://www.w3.org/TR/2001/REC-SVG-20010904/DTD/svg10.dtd">
<svg version="1.0" xmlns="http://www.w3.org/2000/svg"
 width="700.000000pt" height="700.000000pt" viewBox="0 0 700.000000 700.000000"
 preserveAspectRatio="xMidYMid meet">
<metadata>
Created by potrace 1.11, written by Peter Selinger 2001-2013
</metadata>
<g transform="translate(0.000000,700.000000) scale(0.100000,-0.100000)"
fill="#000000" stroke="none">
<path d="M156 4911 c-3 -4 -4 -407 -4 -897 l0 -891 239 0 239 -1 0 374 c0 206
3 375 8 375 4 1 109 2 234 3 l227 1 -7 -40 c-4 -22 -6 -92 -6 -155 1 -95 6
-128 27 -188 58 -166 161 -285 310 -357 116 -56 202 -74 337 -70 189 5 320 56
436 170 45 45 86 98 112 146 23 42 42 79 42 83 0 3 -92 6 -205 6 l-205 0 -35
-39 c-61 -68 -183 -83 -279 -34 -60 31 -118 114 -128 183 l-3 25 416 3 c329 2
416 0 416 -10 3 -55 35 -153 77 -233 41 -79 163 -202 242 -243 206 -107 450
-75 574 76 l30 37 1 -40 c1 -22 1 -47 0 -56 -2 -16 73 -17 968 -16 l970 0 122
138 121 138 22 -24 c11 -12 44 -49 72 -81 28 -33 72 -81 98 -109 25 -27 46
-53 46 -56 0 -3 124 -6 276 -6 l275 0 -23 26 c-13 14 -25 28 -29 31 -3 3 -81
91 -174 195 -94 105 -184 206 -202 225 -85 94 -84 92 -65 115 9 11 19 22 22
25 3 3 59 66 125 140 66 74 134 151 151 170 141 158 182 205 179 209 -3 3
-463 5 -502 2 -6 -1 -55 -52 -109 -113 -54 -62 -108 -123 -120 -136 l-21 -23
-79 87 c-43 47 -100 109 -125 136 l-46 51 -551 0 c-396 0 -552 3 -553 11 -3
43 0 226 4 232 3 5 132 9 286 9 l281 0 0 201 0 202 -709 -1 -710 0 0 -341 c0
-188 0 -352 -1 -365 l0 -25 -32 30 c-101 94 -257 131 -424 99 -175 -33 -324
-151 -407 -325 -26 -52 -47 -87 -47 -77 0 10 -14 46 -31 80 -86 175 -212 274
-410 324 -57 14 -274 12 -334 -3 -165 -42 -303 -129 -366 -230 -11 -19 -24
-34 -28 -34 -4 0 -7 48 -7 106 l1 107 -267 0 -268 -1 0 124 c0 92 3 124 13
125 6 1 134 2 282 4 149 1 275 3 280 4 7 1 10 73 10 199 l0 197 -528 1 c-290
1 -529 -2 -531 -5z m4662 -820 c26 -30 52 -59 57 -65 6 -6 42 -47 80 -91 39
-44 79 -89 90 -101 11 -11 35 -38 54 -60 19 -21 43 -49 54 -61 l19 -22 -167
-188 c-92 -103 -199 -224 -239 -267 -39 -44 -76 -86 -83 -95 -10 -13 -12 25
-13 184 l0 201 -285 -1 -285 0 -1 25 c-1 38 -1 272 0 300 l1 25 285 0 285 0 0
190 0 190 51 -55 c27 -30 71 -79 97 -109z m-2959 -68 c33 -21 53 -43 73 -83
15 -30 25 -57 22 -61 -2 -4 -103 -7 -224 -7 -219 1 -220 1 -214 22 18 62 87
133 149 153 54 18 144 7 194 -24z m1235 -40 c92 -46 133 -122 143 -266 10
-142 -45 -255 -144 -299 -122 -54 -255 5 -316 141 -44 96 -28 256 35 347 26
38 98 87 136 92 15 2 28 5 29 6 8 8 90 -7 117 -21z"/>
<path d="M6524 3478 c-176 -119 -96 -389 115 -391 161 -2 267 156 202 299 -37
82 -107 124 -204 124 -56 0 -71 -4 -113 -32z m206 -26 c73 -44 102 -131 73
-217 -18 -51 -39 -74 -90 -96 -63 -29 -150 -12 -195 38 -88 97 -41 264 83 293
42 10 96 3 129 -18z"/>
<path d="M6566 3424 c-9 -8 -13 -157 -7 -241 1 -7 10 -13 21 -13 18 0 20 7 20
58 0 57 0 58 30 60 34 3 44 -12 55 -75 6 -36 10 -43 30 -43 22 0 23 3 18 38
-3 20 -11 51 -18 68 -10 25 -10 32 1 40 23 15 24 61 3 88 -16 20 -29 25 -81
28 -35 2 -66 -2 -72 -8z m114 -39 c14 -8 13 -42 -2 -51 -6 -4 -26 -8 -45 -9
-31 -1 -33 1 -33 30 0 17 3 34 6 37 7 7 60 2 74 -7z"/>
<path d="M3672 2550 c-1 -176 2 -321 6 -321 4 -1 85 -2 180 -3 155 -1 175 0
183 16 15 28 -8 33 -161 33 l-145 0 -2 125 c-2 68 1 127 6 130 6 3 68 5 140 4
120 -1 131 1 137 18 3 11 3 23 -1 26 -4 4 -68 7 -143 7 l-137 0 -1 118 -2 117
149 0 149 0 0 25 0 25 -179 0 -178 0 -1 -320z"/>
<path d="M4702 2680 c-19 -4 -47 -20 -63 -36 l-29 -28 0 31 c0 28 -3 32 -28
31 l-27 -1 0 -304 c0 -264 2 -306 15 -313 34 -19 42 4 42 116 -1 87 2 106 11
93 19 -25 74 -50 119 -53 124 -9 210 87 209 234 0 170 -103 265 -249 230z
m107 -58 c102 -51 110 -274 14 -338 -35 -22 -112 -24 -144 -2 -42 27 -63 83
-63 168 1 91 20 142 66 170 41 25 82 25 127 2z"/>
<path d="M5172 2675 c-16 -7 -36 -23 -45 -35 l-15 -22 -4 28 c-2 23 -8 29 -29
31 l-27 2 2 -225 c0 -123 3 -225 6 -225 3 -1 15 -3 28 -4 22 -2 22 -2 22 147
0 203 19 247 110 256 45 4 48 6 46 31 -3 21 -8 26 -34 27 -16 1 -43 -5 -60
-11z"/>
<path d="M5445 2685 c-5 -2 -22 -6 -37 -9 -74 -17 -130 -108 -133 -220 -3 -86
16 -147 62 -191 54 -52 154 -66 226 -32 41 20 61 42 80 90 l16 37 -28 0 c-23
0 -31 -7 -41 -31 -31 -74 -147 -93 -206 -34 -19 19 -41 68 -48 108 l-7 37 166
0 165 0 0 28 c0 87 -49 180 -105 202 -32 13 -94 21 -110 15z m117 -85 c25 -31
44 -92 34 -109 -3 -5 -62 -8 -131 -8 l-125 0 0 24 c0 33 34 97 62 115 53 35
119 25 160 -22z"/>
<path d="M5810 2679 c-63 -14 -100 -76 -90 -149 4 -31 55 -70 119 -91 135 -44
157 -66 131 -128 -15 -37 -58 -55 -116 -48 -52 5 -82 28 -86 66 -2 20 -9 27
-30 29 -24 3 -28 0 -28 -23 0 -77 74 -125 182 -119 86 5 142 53 147 126 5 68
-31 107 -124 134 -69 20 -117 42 -127 58 -16 23 -8 65 16 83 35 28 106 29 139
3 15 -12 27 -30 27 -40 0 -12 9 -19 31 -22 31 -5 31 -4 25 30 -6 40 -30 70
-66 84 -34 13 -107 17 -150 7z"/>
<path d="M6195 2681 c-50 -13 -72 -29 -89 -65 -43 -90 1 -148 144 -189 95 -28
119 -57 94 -116 -25 -59 -125 -71 -175 -22 -16 16 -29 39 -29 50 0 17 -6 21
-31 21 -29 0 -30 -1 -24 -32 16 -77 65 -110 160 -111 82 0 132 24 155 76 39
86 2 150 -106 182 -127 38 -156 62 -134 115 6 15 23 32 36 39 51 23 128 6 139
-30 11 -34 34 -50 55 -39 17 9 17 14 8 43 -13 36 -23 49 -57 66 -29 16 -107
22 -146 12z"/>
<path d="M4112 2647 c109 -144 138 -185 138 -191 0 -5 -83 -120 -162 -223 -6
-8 1 -11 27 -10 34 1 41 7 102 94 36 51 67 93 69 93 2 0 31 -37 65 -82 34 -46
65 -86 69 -91 7 -8 80 -20 80 -13 0 3 -35 51 -78 108 -43 57 -82 109 -86 116
-5 8 22 51 73 117 45 57 81 107 81 110 0 3 -15 4 -34 3 -30 -3 -41 -13 -98
-90 l-65 -88 -66 88 c-61 82 -68 89 -102 90 l-37 1 24 -32z"/>
</g>
</svg>
